<svg width="371" height="228" viewBox="0 0 371 228" fill="none" xmlns="http://www.w3.org/2000/svg">
<path d="M41.68 1H329.42C338.08 1 345.1 8.03 345.1 16.68V210.96H26V16.68C26 8.02 33.03 1 41.68 1Z" fill="black" stroke="black" stroke-width="0.75" stroke-linecap="round" stroke-linejoin="round"/>
<path d="M357.454 227.63H13.9743C7.84425 227.63 2.61425 223.2 1.59425 217.16L1.03425 213.83C0.784254 212.33 1.93425 210.97 3.45425 210.97H367.964C369.484 210.97 370.644 212.34 370.384 213.83L369.824 217.16C368.804 223.2 363.574 227.63 357.444 227.63H357.454Z" fill="black" stroke="black" stroke-width="0.75" stroke-linecap="round" stroke-linejoin="round"/>
<path d="M149 210.99H222.07V211.7C222.07 215.21 219.22 218.06 215.71 218.06H155.37C151.86 218.06 149.01 215.21 149.01 211.7V210.99H149Z" fill="white" stroke="black" stroke-width="0.75" stroke-miterlimit="10"/>
<rect x="34" y="9" width="303" height="194" rx="10" fill="white"/>
<path d="M235.745 41.0176H150.849C145.837 41.0176 141.774 45.0646 141.774 50.0568V168.351C141.774 173.343 145.837 177.39 150.849 177.39H235.745C240.758 177.39 244.821 173.343 244.821 168.351V50.0568C244.821 45.0646 240.758 41.0176 235.745 41.0176Z" fill="black"/>
<path d="M226.879 35H137.059C132.056 35 128 39.0393 128 44.0221V159.451C128 164.434 132.056 168.474 137.059 168.474H226.879C231.882 168.474 235.938 164.434 235.938 159.451V44.0221C235.938 39.0393 231.882 35 226.879 35Z" fill="white" stroke="black" stroke-width="0.75" stroke-miterlimit="10"/>
<path d="M186 129C200.912 129 213 116.912 213 102C213 87.0883 200.912 75 186 75C171.088 75 159 87.0883 159 102C159 116.912 171.088 129 186 129Z" fill="black" stroke="black" stroke-width="0.604262" stroke-miterlimit="10"/>
<path d="M181.974 81V96.5754H170V106.196H181.974V122H191.645V106.196H206V96.5754H191.645V81H181.974Z" fill="black" stroke="black" stroke-width="0.75" stroke-linejoin="round"/>
<path d="M179.974 81V96.5754H166V106.196H179.974V122H189.645V106.196H204V96.5754H189.645V81H179.974Z" fill="white" stroke="black" stroke-width="0.75" stroke-linejoin="round"/>
<path d="M206.846 135.527H145.223C144.217 135.527 143.401 136.337 143.401 137.337C143.401 138.337 144.217 139.147 145.223 139.147H206.846C207.852 139.147 208.668 138.337 208.668 137.337C208.668 136.337 207.852 135.527 206.846 135.527Z" fill="white"/>
<path d="M206.846 144.532H145.223C144.217 144.532 143.401 145.342 143.401 146.342C143.401 147.342 144.217 148.152 145.223 148.152H206.846C207.852 148.152 208.668 147.342 208.668 146.342C208.668 145.342 207.852 144.532 206.846 144.532Z" fill="white"/>
</svg>
