<svg width="124" height="235" viewBox="0 0 124 235" fill="none" xmlns="http://www.w3.org/2000/svg">
<rect x="2.375" y="0.375" width="119.25" height="234.25" rx="15.625" fill="#172554" stroke="black" stroke-width="0.75"/>
<path d="M122 46H123C123.552 46 124 46.4477 124 47V75C124 75.5523 123.552 76 123 76H122V46Z" fill="black"/>
<path d="M0 37C0 36.4477 0.447715 36 1 36H2V58H1C0.447715 58 0 57.5523 0 57V37Z" fill="black"/>
<path d="M0 64C0 63.4477 0.447715 63 1 63H2V85H1C0.447715 85 0 84.5523 0 84V64Z" fill="black"/>
<rect x="8" y="6" width="108" height="223" rx="12" fill="white"/>
<path d="M42 225H82" stroke="black" stroke-width="2" stroke-linecap="round"/>
<path d="M90.3604 79.2964H42.0126C39.158 79.2964 36.844 81.5133 36.844 84.248V149.048C36.844 151.783 39.158 154 42.0126 154H90.3604C93.215 154 95.529 151.783 95.529 149.048V84.248C95.529 81.5133 93.215 79.2964 90.3604 79.2964Z" fill="black"/>
<path d="M85.3112 76H34.1588C31.3097 76 29 78.2127 29 80.9422V144.174C29 146.903 31.3097 149.116 34.1588 149.116H85.3112C88.1603 149.116 90.47 146.903 90.47 144.174V80.9422C90.47 78.2127 88.1603 76 85.3112 76Z" fill="white" stroke="black" stroke-width="0.75" stroke-miterlimit="10"/>
<path d="M62.0307 127.493C70.5228 127.493 77.407 120.871 77.407 112.702C77.407 104.534 70.5228 97.9117 62.0307 97.9117C53.5385 97.9117 46.6543 104.534 46.6543 112.702C46.6543 120.871 53.5385 127.493 62.0307 127.493Z" fill="black" stroke="black" stroke-width="0.604262" stroke-miterlimit="10"/>
<path d="M59.7377 101.198V109.731H52.9187V115H59.7377V123.658H65.2453V115H73.4205V109.731H65.2453V101.198H59.7377Z" fill="black" stroke="black" stroke-width="0.75" stroke-linejoin="round"/>
<path d="M58.5988 101.198V109.731H50.6409V115H58.5988V123.658H64.1064V115H72.2817V109.731H64.1064V101.198H58.5988Z" fill="white" stroke="black" stroke-width="0.75" stroke-linejoin="round"/>
<path d="M73.9022 131.068H38.8086C38.2356 131.068 37.771 131.512 37.771 132.059C37.771 132.607 38.2356 133.051 38.8086 133.051H73.9022C74.4753 133.051 74.9398 132.607 74.9398 132.059C74.9398 131.512 74.4753 131.068 73.9022 131.068Z" fill="white"/>
<path d="M73.9022 136.001H38.8086C38.2356 136.001 37.771 136.445 37.771 136.992C37.771 137.54 38.2356 137.984 38.8086 137.984H73.9022C74.4753 137.984 74.9398 137.54 74.9398 136.992C74.9398 136.445 74.4753 136.001 73.9022 136.001Z" fill="white"/>
</svg>
