<svg width="198" height="279" viewBox="0 0 198 279" fill="none" xmlns="http://www.w3.org/2000/svg">
<path d="M178.964 1H24.4784C13.9648 1 5.44189 9.5259 5.44189 20.0431V259.174C5.44189 269.691 13.9648 278.217 24.4784 278.217H178.964C189.477 278.217 198 269.691 198 259.174V20.0431C198 9.5259 189.477 1 178.964 1Z" fill="black"/>
<path d="M174.522 1H20.0365C9.52292 1 1 9.5259 1 20.0431V259.174C1 269.691 9.52292 278.217 20.0365 278.217H174.522C185.035 278.217 193.558 269.691 193.558 259.174V20.0431C193.558 9.5259 185.035 1 174.522 1Z" fill="white" stroke="black" stroke-width="0.75" stroke-miterlimit="10"/>
<path d="M24.4675 1H178.964C189.465 1 198 9.52759 198 20.0431V30.3523H5.44189V20.0431C5.44189 9.52759 13.9665 1 24.4675 1Z" fill="black"/>
<path d="M20.0365 1H174.522C185.023 1 193.558 9.52759 193.558 20.0431V30.3523H1V20.0431C1 9.52759 9.5246 1 20.0365 1Z" fill="black" stroke="black" stroke-width="0.75" stroke-miterlimit="10"/>
<path d="M24.0002 22.3679C27.3348 22.3679 30.038 19.6638 30.038 16.328C30.038 12.9922 27.3348 10.2881 24.0002 10.2881C20.6656 10.2881 17.9624 12.9922 17.9624 16.328C17.9624 19.6638 20.6656 22.3679 24.0002 22.3679Z" fill="white" stroke="black" stroke-width="0.75" stroke-miterlimit="10"/>
<path d="M42.1135 22.3679C45.4481 22.3679 48.1513 19.6638 48.1513 16.328C48.1513 12.9922 45.4481 10.2881 42.1135 10.2881C38.7789 10.2881 36.0757 12.9922 36.0757 16.328C36.0757 19.6638 38.7789 22.3679 42.1135 22.3679Z" fill="white" stroke="black" stroke-width="0.75" stroke-miterlimit="10"/>
<path d="M60.2273 22.3679C63.5619 22.3679 66.2651 19.6638 66.2651 16.328C66.2651 12.9922 63.5619 10.2881 60.2273 10.2881C56.8927 10.2881 54.1895 12.9922 54.1895 16.328C54.1895 19.6638 56.8927 22.3679 60.2273 22.3679Z" fill="white" stroke="black" stroke-width="0.75" stroke-miterlimit="10"/>
<path d="M104.187 93.253L104.188 93.2547L115.283 117.143L115.285 117.146C116.119 118.908 117.682 120.126 119.565 120.384C119.566 120.385 119.568 120.385 119.569 120.385L144.498 124.211L144.499 124.211C148.291 124.783 149.887 129.779 147.073 132.643L147.072 132.644L129.001 151.199L128.996 151.204C127.679 152.593 127.083 154.547 127.382 156.438L127.382 156.44L131.666 182.705C132.325 186.821 128.302 189.784 124.931 187.928L102.632 175.521L102.629 175.519C100.997 174.625 99.0032 174.625 97.3706 175.519L97.3676 175.521L75.0689 187.928C71.6985 189.784 67.6761 186.821 68.3335 182.706C68.3336 182.705 68.3336 182.705 68.3337 182.705L72.6178 156.44L72.6182 156.438C72.9156 154.554 72.326 152.536 70.998 151.197C70.9974 151.196 70.9968 151.196 70.9962 151.195L52.9283 132.644L52.9268 132.643C50.113 129.779 51.7086 124.783 55.5009 124.211L55.5022 124.211L80.4353 120.384C82.325 120.125 83.8817 118.843 84.7121 117.153L84.7122 117.153L84.7164 117.144L95.8666 93.2555L95.8678 93.253C97.5568 89.5823 102.498 89.5823 104.187 93.253Z" fill="#FDD500" stroke="black"/>
<path d="M137.721 155.723L109.574 141.058C109.504 141.014 109.42 141 109.337 141H107.524C107.371 141 107.218 141.072 107.12 141.188C107.022 141.303 106.981 141.476 107.008 141.635L112.487 173.651C112.529 173.911 112.752 174.099 113.003 174.099H114.816C114.955 174.099 115.094 174.041 115.192 173.94L121.312 167.603L127.865 176.783C127.962 176.928 128.116 177 128.283 177H130.095C130.207 177 130.318 176.957 130.402 176.899L136.299 172.395C136.411 172.309 136.48 172.179 136.508 172.034C136.522 171.89 136.494 171.746 136.411 171.63L128.91 161.512L137.721 156.705C137.888 156.604 138 156.431 138 156.214C138 155.998 137.888 155.824 137.707 155.738L137.721 155.723Z" fill="#031001"/>
<path d="M107.51 141.548L112.989 173.55L120.587 165.683L128.269 176.451L134.166 171.948L126.289 161.309L135.658 156.214L107.51 141.548Z" fill="#FBF9ED" stroke="#031001" stroke-width="0.75" stroke-linecap="round" stroke-linejoin="round"/>
<path d="M121.514 113.696L113.437 128.06" stroke="black" stroke-width="3.0991" stroke-linecap="round" stroke-linejoin="round"/>
<path d="M98.489 110L100.606 126.343" stroke="black" stroke-width="3.0991" stroke-linecap="round" stroke-linejoin="round"/>
<path d="M136 128.632L121.632 136.702" stroke="black" stroke-width="3.0991" stroke-linecap="round" stroke-linejoin="round"/>
</svg>
