<svg width="391" height="279" viewBox="0 0 391 279" fill="none" xmlns="http://www.w3.org/2000/svg">
<path d="M375.223 1H20.4577C11.7444 1 4.68091 8.03504 4.68091 16.7132V262.433C4.68091 271.111 11.7444 278.146 20.4577 278.146H375.223C383.936 278.146 391 271.111 391 262.433V16.7132C391 8.03504 383.936 1 375.223 1Z" fill="black"/>
<path d="M371.542 1H16.7768C8.06349 1 1 8.03504 1 16.7132V262.433C1 271.111 8.06349 278.146 16.7768 278.146H371.542C380.256 278.146 387.319 271.111 387.319 262.433V16.7132C387.319 8.03504 380.256 1 371.542 1Z" fill="white" stroke="black" stroke-width="0.75" stroke-miterlimit="10"/>
<path d="M20.4487 1H375.223C383.926 1 391 8.03644 391 16.7132V25.2197H4.68091V16.7132C4.68091 8.03644 11.7458 1 20.4487 1Z" fill="black"/>
<path d="M16.7768 1H371.551C380.254 1 387.328 8.03644 387.328 16.7132V25.2197H1V16.7132C1 8.03644 8.07389 1 16.7768 1Z" fill="black" stroke="black" stroke-width="0.75" stroke-miterlimit="10"/>
<path d="M20.0711 18.6316C22.8347 18.6316 25.075 16.4003 25.075 13.6478C25.075 10.8954 22.8347 8.66406 20.0711 8.66406C17.3075 8.66406 15.0671 10.8954 15.0671 13.6478C15.0671 16.4003 17.3075 18.6316 20.0711 18.6316Z" fill="white" stroke="black" stroke-width="0.75" stroke-miterlimit="10"/>
<path d="M35.0828 18.6316C37.8464 18.6316 40.0867 16.4003 40.0867 13.6478C40.0867 10.8954 37.8464 8.66406 35.0828 8.66406C32.3192 8.66406 30.0789 10.8954 30.0789 13.6478C30.0789 16.4003 32.3192 18.6316 35.0828 18.6316Z" fill="white" stroke="black" stroke-width="0.75" stroke-miterlimit="10"/>
<path d="M50.0947 18.6316C52.8583 18.6316 55.0987 16.4003 55.0987 13.6478C55.0987 10.8954 52.8583 8.66406 50.0947 8.66406C47.3312 8.66406 45.0908 10.8954 45.0908 13.6478C45.0908 16.4003 47.3312 18.6316 50.0947 18.6316Z" fill="white" stroke="black" stroke-width="0.75" stroke-miterlimit="10"/>
<path d="M201.818 71.6668L201.819 71.6684L218.009 106.656L218.011 106.66C219.198 109.175 221.416 110.907 224.081 111.272C224.083 111.273 224.084 111.273 224.086 111.273L260.465 116.877L260.466 116.877C266.199 117.745 268.58 125.3 264.352 129.62L264.35 129.622L237.981 156.797L237.976 156.802C236.105 158.785 235.257 161.573 235.682 164.271L235.682 164.274L241.934 202.742C242.921 208.937 236.877 213.456 231.77 210.634C231.769 210.634 231.769 210.634 231.769 210.633L199.23 192.461L199.227 192.459C196.913 191.188 194.087 191.188 191.773 192.459L191.77 192.461L159.231 210.633C159.231 210.634 159.23 210.634 159.23 210.634C154.123 213.456 148.08 208.938 149.066 202.744C149.066 202.743 149.066 202.743 149.066 202.742L155.318 164.274L155.318 164.271C155.741 161.58 154.9 158.7 153.017 156.795C153.017 156.795 153.016 156.794 153.016 156.794L126.65 129.622L126.648 129.62C122.42 125.3 124.801 117.745 130.534 116.877L130.535 116.877L166.919 111.272C169.591 110.905 171.803 109.084 172.986 106.666L172.986 106.666L172.991 106.657L189.261 71.6693L189.262 71.6668C191.809 66.1111 199.271 66.1111 201.818 71.6668Z" fill="#FDD500" stroke="black"/>
<path d="M249.532 164.539L202.317 140.096C202.2 140.024 202.06 140 201.92 140H198.879C198.622 140 198.365 140.12 198.201 140.313C198.038 140.505 197.967 140.794 198.014 141.059L207.205 194.419C207.275 194.852 207.649 195.164 208.07 195.164H211.11C211.344 195.164 211.578 195.068 211.741 194.9L222.008 184.338L232.999 199.639C233.163 199.88 233.42 200 233.7 200H236.74C236.928 200 237.115 199.928 237.255 199.832L247.147 192.326C247.334 192.181 247.451 191.965 247.498 191.724C247.521 191.484 247.474 191.243 247.334 191.051L234.753 174.186L249.532 166.175C249.813 166.006 250 165.718 250 165.357C250 164.996 249.813 164.707 249.509 164.563L249.532 164.539Z" fill="#031001"/>
<path d="M198.856 140.914L208.046 194.25L220.791 181.139L233.677 199.086L243.569 191.58L230.356 173.849L246.071 165.357L198.856 140.914Z" fill="#FBF9ED" stroke="#031001" stroke-width="0.75" stroke-linecap="round" stroke-linejoin="round"/>
<path d="M209.514 113.696L201.437 128.06" stroke="black" stroke-width="3.0991" stroke-linecap="round" stroke-linejoin="round"/>
<path d="M186.489 110L188.606 126.343" stroke="black" stroke-width="3.0991" stroke-linecap="round" stroke-linejoin="round"/>
<path d="M224 128.632L209.632 136.702" stroke="black" stroke-width="3.0991" stroke-linecap="round" stroke-linejoin="round"/>
</svg>
