<svg width="124" height="235" viewBox="0 0 124 235" fill="none" xmlns="http://www.w3.org/2000/svg">
<rect x="2.375" y="0.375" width="119.25" height="234.25" rx="15.625" fill="#172554" stroke="black" stroke-width="0.75"/>
<path d="M122 46H123C123.552 46 124 46.4477 124 47V75C124 75.5523 123.552 76 123 76H122V46Z" fill="black"/>
<path d="M0 37C0 36.4477 0.447715 36 1 36H2V58H1C0.447715 58 0 57.5523 0 57V37Z" fill="black"/>
<path d="M0 64C0 63.4477 0.447715 63 1 63H2V85H1C0.447715 85 0 84.5523 0 84V64Z" fill="black"/>
<rect x="8" y="6" width="108" height="223" rx="12" fill="white"/>
<path d="M42 225H82" stroke="black" stroke-width="2" stroke-linecap="round"/>
<path d="M88.6876 72H38.995C36.061 72 33.6826 74.5772 33.6826 77.7564V151.179C33.6826 154.358 36.061 156.935 38.995 156.935H88.6876C91.6215 156.935 93.9999 154.358 93.9999 151.179V77.7564C93.9999 74.5772 91.6215 72 88.6876 72Z" fill="black" stroke="black"/>
<path d="M86.8775 72H34.3023C31.3739 72 29 74.5724 29 77.7455V151.254C29 154.428 31.3739 157 34.3023 157H86.8775C89.8058 157 92.1798 154.428 92.1798 151.254V77.7455C92.1798 74.5724 89.8058 72 86.8775 72Z" fill="white" stroke="black" stroke-width="0.75" stroke-miterlimit="10"/>
<path d="M54.2334 77.9471H35.3031C34.1668 77.9471 33.2456 78.9453 33.2456 80.1767C33.2456 81.408 34.1668 82.4062 35.3031 82.4062H54.2334C55.3698 82.4062 56.2909 81.408 56.2909 80.1767C56.2909 78.9453 55.3698 77.9471 54.2334 77.9471Z" fill="black"/>
<path d="M84.8499 87.514H36.3294C34.7124 87.514 33.4016 88.9344 33.4016 90.6866V146.845C33.4016 148.597 34.7124 150.017 36.3294 150.017H84.8499C86.4669 150.017 87.7777 148.597 87.7777 146.845V90.6866C87.7777 88.9344 86.4669 87.514 84.8499 87.514Z" fill="black"/>
<path d="M48.4585 127.869H40.0724C38.9361 127.869 38.0149 128.867 38.0149 130.099C38.0149 131.33 38.9361 132.328 40.0724 132.328H48.4585C49.5948 132.328 50.516 131.33 50.516 130.099C50.516 128.867 49.5948 127.869 48.4585 127.869Z" fill="black"/>
<path d="M75.151 136.018H39.0814C38.4924 136.018 38.0149 136.535 38.0149 137.171C38.0149 137.808 38.4924 138.324 39.0814 138.324H75.151C75.7401 138.324 76.2175 137.808 76.2175 137.171C76.2175 136.535 75.7401 136.018 75.151 136.018Z" fill="white"/>
<path d="M75.151 141.753H39.0814C38.4924 141.753 38.0149 142.269 38.0149 142.906C38.0149 143.543 38.4924 144.059 39.0814 144.059H75.151C75.7401 144.059 76.2175 143.543 76.2175 142.906C76.2175 142.269 75.7401 141.753 75.151 141.753Z" fill="white"/>
<path d="M77.9883 116.787C77.9883 111.423 73.6317 98.7434 67.3032 98.7434C61.4878 98.7434 57.096 109.907 57.096 109.907C57.096 109.907 55.1039 104.62 51.3913 104.62C46.5216 104.62 43.7749 113.249 43.7749 116.792H77.9883V116.787Z" fill="white"/>
<path d="M52.7545 100.58C54.8299 100.58 56.5124 98.7573 56.5124 96.5084C56.5124 94.2595 54.8299 92.4364 52.7545 92.4364C50.679 92.4364 48.9966 94.2595 48.9966 96.5084C48.9966 98.7573 50.679 100.58 52.7545 100.58Z" fill="white"/>
</svg>
