<svg width="371" height="228" viewBox="0 0 371 228" fill="none" xmlns="http://www.w3.org/2000/svg">
<path d="M41.68 1H329.42C338.08 1 345.1 8.03 345.1 16.68V210.96H26V16.68C26 8.02 33.03 1 41.68 1Z" fill="black" stroke="black" stroke-width="0.75" stroke-linecap="round" stroke-linejoin="round"/>
<path d="M357.454 227.63H13.9743C7.84425 227.63 2.61425 223.2 1.59425 217.16L1.03425 213.83C0.784254 212.33 1.93425 210.97 3.45425 210.97H367.964C369.484 210.97 370.644 212.34 370.384 213.83L369.824 217.16C368.804 223.2 363.574 227.63 357.444 227.63H357.454Z" fill="black" stroke="black" stroke-width="0.75" stroke-linecap="round" stroke-linejoin="round"/>
<path d="M149 210.99H222.07V211.7C222.07 215.21 219.22 218.06 215.71 218.06H155.37C151.86 218.06 149.01 215.21 149.01 211.7V210.99H149Z" fill="white" stroke="black" stroke-width="0.75" stroke-miterlimit="10"/>
<rect x="34" y="9" width="303" height="194" rx="10" fill="white"/>
<path d="M235.274 26H144.299C138.927 26 134.573 30.8513 134.573 36.8356V175.043C134.573 181.027 138.927 185.879 144.299 185.879H235.274C240.646 185.879 245 181.027 245 175.043V36.8356C245 30.8513 240.646 26 235.274 26Z" fill="black" stroke="black"/>
<path d="M231.96 26H135.707C130.346 26 126 30.8421 126 36.8151V175.185C126 181.158 130.346 186 135.707 186H231.96C237.321 186 241.668 181.158 241.668 175.185V36.8151C241.668 30.8421 237.321 26 231.96 26Z" fill="white" stroke="black" stroke-width="0.75" stroke-miterlimit="10"/>
<path d="M172.197 37.1946H137.54C135.459 37.1946 133.773 39.0735 133.773 41.3913C133.773 43.7091 135.459 45.5881 137.54 45.5881H172.197C174.277 45.5881 175.964 43.7091 175.964 41.3913C175.964 39.0735 174.277 37.1946 172.197 37.1946Z" fill="black"/>
<path d="M228.249 55.203H139.419C136.458 55.203 134.059 57.8767 134.059 61.1749V166.884C134.059 170.182 136.458 172.856 139.419 172.856H228.249C231.209 172.856 233.609 170.182 233.609 166.884V61.1749C233.609 57.8767 231.209 55.203 228.249 55.203Z" fill="black"/>
<path d="M161.624 131.165H146.271C144.191 131.165 142.504 133.044 142.504 135.362C142.504 137.68 144.191 139.559 146.271 139.559H161.624C163.705 139.559 165.391 137.68 165.391 135.362C165.391 133.044 163.705 131.165 161.624 131.165Z" fill="black"/>
<path d="M210.492 146.505H144.457C143.379 146.505 142.504 147.477 142.504 148.675C142.504 149.874 143.379 150.846 144.457 150.846H210.492C211.57 150.846 212.445 149.874 212.445 148.675C212.445 147.477 211.57 146.505 210.492 146.505Z" fill="white"/>
<path d="M210.492 157.3H144.457C143.379 157.3 142.504 158.271 142.504 159.47C142.504 160.669 143.379 161.64 144.457 161.64H210.492C211.57 161.64 212.445 160.669 212.445 159.47C212.445 158.271 211.57 157.3 210.492 157.3Z" fill="white"/>
<path d="M215.686 110.304C215.686 100.208 207.71 76.3405 196.124 76.3405C185.478 76.3405 177.437 97.355 177.437 97.355C177.437 97.355 173.79 87.4018 166.993 87.4018C158.078 87.4018 153.049 103.645 153.049 110.315H215.686V110.304Z" fill="white"/>
<path d="M169.489 79.7985C173.289 79.7985 176.369 76.3667 176.369 72.1335C176.369 67.9002 173.289 64.4685 169.489 64.4685C165.689 64.4685 162.609 67.9002 162.609 72.1335C162.609 76.3667 165.689 79.7985 169.489 79.7985Z" fill="white"/>
</svg>
