<svg width="182" height="44" viewBox="0 0 182 44" fill="none" xmlns="http://www.w3.org/2000/svg">
<path d="M159.508 0H26.0801C13.9377 0 4.05469 9.8358 4.05469 21.9327C4.05469 34.0296 13.9377 43.8654 26.0928 43.8654H159.508C171.663 43.8654 181.546 34.0296 181.546 21.9327C181.546 9.8358 171.65 0 159.508 0Z" fill="black"/>
<path d="M155.986 0.477356H22.5584C10.652 0.477356 1 10.0832 1 21.9327V21.9453C1 33.7947 10.652 43.4006 22.5584 43.4006H155.986C167.892 43.4006 177.544 33.7947 177.544 21.9453V21.9327C177.544 10.0832 167.892 0.477356 155.986 0.477356Z" fill="white" stroke="black" stroke-width="0.75" stroke-linecap="round" stroke-linejoin="round"/>
<path d="M155.406 5.87891H142.809C134.137 5.87891 127.107 12.8752 127.107 21.5056V22.3473C127.107 30.9777 134.137 37.974 142.809 37.974H155.406C164.078 37.974 171.108 30.9777 171.108 22.3473V21.5056C171.108 12.8752 164.078 5.87891 155.406 5.87891Z" fill="black"/>
<path d="M22.0286 32.5599C21.6751 32.5599 21.3975 32.2835 21.3975 31.9318V13.0641C21.3975 12.7124 21.6751 12.436 22.0286 12.436C22.382 12.436 22.6597 12.7124 22.6597 13.0641V31.9318C22.6597 32.2835 22.382 32.5599 22.0286 32.5599Z" fill="black"/>
<path d="M158.688 30.4621L153.563 25.362C154.863 23.9802 155.658 22.1211 155.658 20.0861C155.658 15.8026 152.162 12.323 147.858 12.323C143.554 12.323 140.058 15.8026 140.058 20.0861C140.058 24.3697 143.554 27.8492 147.858 27.8492C149.65 27.8492 151.304 27.2337 152.617 26.2162L157.792 31.3665C157.918 31.4921 158.082 31.5549 158.233 31.5549C158.385 31.5549 158.562 31.4921 158.675 31.3665C158.928 31.1153 158.928 30.7259 158.675 30.4746L158.688 30.4621ZM141.332 20.0736C141.332 16.4935 144.261 13.5666 147.871 13.5666C151.481 13.5666 154.409 16.4809 154.409 20.0736C154.409 23.6662 151.481 26.5805 147.871 26.5805C144.261 26.5805 141.332 23.6662 141.332 20.0736Z" fill="white"/>
</svg>
