<svg xmlns="http://www.w3.org/2000/svg" viewBox="-94 -47 660 660" fill-rule="evenodd"><defs><clipPath id="f"><rect x="0" y="0" width="473" height="567"/></clipPath></defs><g clip-path="url(#f)"><path d="M412.5,250.2 C411.3,228.3 410.3,205.7 406.1,184.2 C404.1,173.6 399.9,163.9 393.3,155.4 C387.2,147.6 379.5,141.6 371.8,135.6 C356.1,123.6 341.1,110.3 323.6,101 C306.9,92.1 288.7,86.7 269.9,84.3 C233.7,79.7 195.7,87.4 164.3,106 C133.8,124 109.3,152 94.1,183.9 C86.6,199.8 80.9,216.5 77.9,233.8 C74.2,254.4 74.6,275.1 74.7,296 C74.7,303 74.7,310 74.3,317 C73.8,320.4 73.4,323.8 73.4,327.5 C66.5,336.6 63.7,348.7 68.1,359.9 C75,377.7 94.5,385.8 112.3,382.7 C113.1,387.4 115,391.9 117.4,396.4 C121.5,404 126,411.4 130.9,418.6 C140.9,433.3 152.3,446.7 166,458.3 C193,481.2 227.3,496.2 262.8,498.3 C295.1,500.3 329.2,491.1 355.6,472.2 C369.3,462.3 381.1,450.2 389.9,435.8 C400.2,418.9 405.8,399.5 408.7,380.1 C415,337.4 414.7,293.2 412.5,250.2 L412.5,250.2 Z" fill="#ffffff"/><path d="M157.5,24.1 C156.2,10.3 168.9,0 180.7,3.8 C182.9,4.1 185,4.8 186.9,5.9 C192.3,9.2 193.5,14.6 192,19.2 C194.6,21.1 196.6,23.7 197.6,26.8 C198.6,30.1 198.5,33.2 197.6,36 C201.3,38.4 204,42.1 204.7,46.6 C205,48.8 204.9,51 204.4,52.9 C210,54.8 214.5,59.1 214.5,65.5 C217.7,65.7 221,65.8 224.3,65.6 C224.7,64.3 225.3,63 226.2,61.8 C227.9,59.4 230.4,57.7 233.1,56.7 L233.5,56.5 L233.5,55.8 C231.4,53.5 230.4,50.6 232.6,47.4 C233,46.8 233.5,46.4 234,46 C234.2,44.6 234.5,43.3 234.8,41.9 C233,39.3 233.2,35.1 236.3,33.8 C235.9,31.3 235.8,28.7 236.3,26.1 C238.2,15.3 248.6,8 259.2,8.4 C260.6,8.5 261.9,8.7 263.1,9 C265.7,9.3 268.3,9.9 270.9,10.7 C273.8,11.7 274.5,14.2 273.9,16.3 C277.9,21.6 279,28.8 275,35.3 C274.8,35.6 274.7,35.8 274.5,36 C275.3,36.6 276,37.4 276.5,38.5 C277.8,41 277.5,44.3 275.5,46.5 C275,47 274.3,47.5 273.6,47.8 L273.6,48 L273.6,48 C273.3,51.4 272.7,54.9 271.7,58.2 C275.9,62.1 278.7,67.4 279.2,73.2 C280.8,73.3 282.4,73.5 283.9,73.7 C284.2,72.1 285.1,70.7 286.6,69.6 C287.8,68.6 289.1,67.9 290.4,67.4 C291.1,64.1 292.6,60.9 295.3,58.4 C296.3,57.4 297.4,56.6 298.5,55.9 C298.4,52.3 299.2,48.7 301.2,45.3 C302.9,42.5 305.3,40.5 308,39.2 C310,35.2 313.7,31.9 319.1,30 C323.1,28.6 327.4,30.3 330.5,32.9 L331.1,33.5 L331.1,33.5 C334,36 335,40.5 333.9,44 C333.5,45.7 332.6,47.6 331.5,49.2 C332.7,54.7 330.2,59.3 326.4,61.8 C327.7,63.7 328.8,65.7 329.7,67.9 C331.3,71.7 329.5,76.4 326.7,79.4 C327.9,81.4 328.7,83.7 329,86.1 C330.3,86.2 331.6,86.4 332.9,86.8 C333.5,84.4 334.8,82.3 336.8,80.5 C337.6,78.9 338.7,77.3 339.8,75.9 C341.6,73.8 343.9,72.2 346.5,71.6 C346.8,70.8 347.3,70 347.9,69.3 C347.3,62.3 351.9,55.1 359.1,55.1 C359.6,53.5 360.2,51.8 360.9,50.3 C362.4,47.1 365.5,45.3 368.8,44.7 C370.7,39.9 374.6,36.4 381.2,35.9 C395.9,34.6 405.2,52.4 401.6,65.3 C400.5,69.1 398,72.6 394.7,74.7 C393.8,75.3 392.9,75.7 392,76 C391.2,77.3 390,78.4 388.4,79.3 C388.1,79.5 387.7,79.7 387.4,79.8 C387.4,85.5 383.5,90.2 378.6,91.7 C378.9,95.3 378,98.9 375.2,101.7 L375,101.9 L375,101.9 L374.6,102.2 L374.6,102.4 C375.6,104.9 375.5,107.7 374.1,110 C374.2,112 374.6,114.1 375.3,116 C378,118.2 380.4,120.7 382.5,123.5 C383.9,122.2 386.1,121.6 387.9,122.3 C388.5,122.1 389,122 389.5,122 C390.3,121.9 391.2,121.9 392,121.9 C392.4,121.4 392.8,120.9 393.3,120.4 C396.8,116.9 401.8,117 405.8,119.2 C406.6,118.6 407.4,118.2 408.3,117.8 C418.5,113.5 425.2,126.4 426.2,134.5 C426.7,138.9 422.9,141.6 419,141.9 C418.3,144.5 415.7,146.5 412.9,147.1 C413.4,150.4 411.2,153.8 408.2,155.1 C406.9,155.6 405.6,155.8 404.4,155.6 L404.4,156.4 L404.4,156.4 C404.7,159.5 403.1,161.5 401,162.3 C400.6,163.9 399.5,165 398.2,165.6 C403.2,177.2 407.2,189.4 410.4,201.4 C415.7,221.2 419.2,241.4 421.6,261.8 C425.8,297.6 425.9,334.1 421.7,369.9 C419.6,388.2 416.1,406 408.8,422.9 C402.8,437.1 394.4,449.3 384.7,461.2 C365.5,484.7 338,502.1 307.7,506.4 C291.8,508.7 275.4,507.9 259.9,503.6 C244.4,499.3 228,491.9 218.2,478.7 C215.6,475.2 216.9,469.4 219.8,466.4 C223.1,463.1 228,462.9 232.1,464.9 C239.3,468.4 245.9,473.2 253.2,476.6 C259.9,479.6 267.1,481.5 274.3,482.9 C288.5,485.6 303.9,484.9 318.1,481.1 C343.8,474.3 366.4,457.7 380.8,435.3 C397.7,408.9 403.8,377.9 406.6,347.1 C409.6,313.3 409.3,279 405.3,245.4 C403.3,228.7 400.2,212.1 396.6,195.7 C394,184 391.1,172.4 388.3,160.7 C385.8,158.4 383.4,155.9 381.1,153.4 L381,153.3 L381,153.3 C380.7,153.4 380.4,153.5 380.1,153.5 C366.3,154.6 351.3,153.2 339.6,145.2 C334.8,142 330.7,137.9 327.7,133.2 C323.5,130.3 319.6,126.6 316.8,122.3 C314.7,120 312.8,117.7 310.9,115.2 C306.3,109.2 303.9,102.8 301.1,95.8 C301,95.6 301,95.5 301,95.3 C300.4,94.4 300.1,93.5 299.9,92.5 C293.8,91.8 287.6,91.3 281.5,91 C279.4,90.9 277.2,90.9 275.1,90.8 C275.6,92.9 276,95.1 276,97.3 C277.8,97.4 279.6,97.6 281.4,97.9 C289.9,99.3 295.4,103.7 300.6,110.5 C305.7,117.2 309.7,125.2 312.7,133 C314.5,137.8 312.1,143.1 308,146.2 C297.6,147.1 287.3,149.3 277.7,153.7 C277.4,153.9 277.1,154.2 277,154.5 C269.3,156.8 261.6,158.9 253.8,160.6 C246.4,162.4 238.9,163.1 231.4,161.2 C228.1,160.4 225,159.2 221.9,157.8 C220.2,158 218.4,157.7 216.6,156.7 C213.8,155.1 211,153.3 208.2,151.4 C203.4,149.1 198.6,146.6 194,143.7 L194,143.7 L194,143.7 C190.4,139.3 185.2,134.8 179.4,131.4 C178.7,130.4 178.1,129.4 177.7,128.3 C175.2,122.2 176.2,114.8 181.5,110.6 C181.6,109.2 182.2,107.8 183.6,106.6 C184.7,105.7 185.9,104.9 187,104.1 C186.8,103.9 186.5,103.7 186.3,103.5 C185.8,103.2 185.3,102.8 184.9,102.4 C181.4,104.3 177.8,106.2 174.2,107.9 C174.1,107.9 174,108 173.9,108.1 C167.1,112.6 160.6,117.7 153.7,122 C152,123.1 150.4,124.1 148.7,125.1 C148.1,125.9 147.5,126.8 146.9,127.6 C146.7,129 146.3,130.3 145.8,131.6 C146.7,132.3 147.5,133.3 148,134.4 C150.1,135.2 152.1,136.3 154,137.5 L155.7,138.2 L155.7,138.2 C157.9,136.5 160.1,135 162.6,133.7 C170.3,134.2 178.5,139.6 184.4,145.1 C184.8,145.6 185.2,146.1 185.6,146.5 C185.9,146.8 186.3,147.1 186.7,147.5 C187.3,148.1 187.8,148.7 188.4,149.4 C188.9,150.1 189.6,150.5 190.3,150.6 C193.8,154 197.2,157.7 199.5,161.7 C203.1,168 200.6,175.8 197.9,182 C197.4,183 197,184 196.5,185 C191.3,191.9 186.5,199 181.6,206.1 C178.3,209.3 175,212.5 171.9,215.8 C171.4,216.2 170.9,216.5 170.3,216.8 C161.2,221.5 152.4,216.2 143.8,212.9 L142.8,212.6 C133.9,209.3 122.8,207.2 122.3,195.6 C122.2,194 122.2,192.4 122.4,190.8 C124.6,185 127.1,179.3 129.9,173.7 C129.3,173.1 128.8,172.4 128.4,171.7 C127.5,170.5 126.7,169.3 126.2,168 C122,175.9 118.1,184.4 112.8,191.4 C109.8,195.2 106.2,196.6 102.3,196.6 C100.7,197.4 98.8,197.7 97.1,197.5 L97.3,199.6 C97.4,201.3 97.6,203.1 97.9,204.9 C101.6,204.8 105.6,205.8 109,207.2 C119.3,211.2 129.2,216.9 139,221.7 C143.8,224.1 150.4,226 154.3,229.7 C157.3,232.5 156.9,236 155.8,239.6 C155.6,240.2 155.4,240.9 155.2,241.5 L155.2,241.7 L155.2,241.7 C152,245.7 149.8,250.5 148.2,255.4 C145.6,259.8 143.8,264.8 142.6,269.6 C141.6,273.5 140.9,277.5 140.4,281.6 L140.3,282.7 L140.2,282.8 L140.2,283.8 L140.2,283.8 C139.5,290.9 139.6,298.1 140.2,305.2 C140.4,307.2 140.6,309.2 140.9,311.1 C139.7,314.6 134.4,315.1 131.7,312.9 C128.7,310.6 125.5,308.5 122.2,306.5 C117.7,308.6 112.6,308.9 107.5,307.2 C107.2,307.1 106.8,307 106.5,306.8 C102.7,307.3 99,308.2 95.5,309.2 L94.4,309.5 C88.7,311.3 83.3,313.4 79,317.7 C71.4,325.4 69,337.9 70.5,348.3 C72,358.5 77.9,370.1 88.5,373 C92.9,374.2 97.6,374.2 101.8,372.5 C103.4,371.9 104.8,371 106.1,369.9 C107.8,368.7 109.1,367.3 111.1,366.5 C112.9,365.8 116,365.8 116.9,365.8 C119.6,365.6 121.9,367.8 122.7,370.2 C125.2,377.7 121.5,383.3 115.6,386.9 C118.1,390.7 120.4,394.7 122.9,398.3 C127.5,404.9 132.4,411.4 137.5,417.8 C142.6,424.3 148.2,430.5 154.2,436.3 C157,438.9 159.8,441.4 162.7,443.8 L164.3,445.1 C167,447.4 169.3,449.7 169.2,453.6 C169.2,455.8 167.7,457.8 165.5,458.4 C157.9,460.5 149.8,450.5 144.8,445.3 L144.5,444.9 C138.4,438.8 132.8,432.2 127.7,425.3 C122.5,418.1 118.2,410.2 114.7,402.1 C113.1,398.3 111.4,394 110.1,389.6 C103.5,392.2 95.7,393.1 90.4,392.5 C85.6,392 81.1,390.5 77.1,388.5 C76.2,390.3 75.1,392.1 73.8,393.5 C68.8,398.8 61.5,400.3 54.5,400.2 C45.5,400.2 37.4,394.5 37.1,384.9 C36.9,378.7 40.1,373.3 44.8,369.7 C46.5,365.4 49.8,361.9 54.6,360.7 C51.4,350.9 50.9,340.1 53.3,330.2 C55.6,320.4 61,311.1 69,305 L69.4,304.6 L69.2,304.7 C67.4,305.8 65.5,306.9 63.7,308 L62.8,308.4 C54.6,313.1 45,317.1 35.4,314.6 C20.1,310.7 18.7,291.6 31.9,284.1 C36.4,281.5 41.7,280.5 46.9,279.8 C47.7,278.8 48.7,277.8 49.7,277 C49.9,273.5 51.7,270 54.8,267.8 C58,265.6 61.5,265.4 64.9,266.4 C66.1,265.5 67.4,264.7 68.9,264 C70.2,263.5 71.5,263.1 72.8,262.8 C72.8,261.7 72.8,260.7 72.7,259.7 C72.5,258.7 72.4,257.7 72.3,256.6 C72,256.6 71.8,256.5 71.6,256.5 C68.2,255.7 65.1,254.2 62.5,252.2 C58.2,254.8 53,255.9 46.9,254 C41.2,252.4 35.8,247 33.1,240.9 C29.5,240.2 26,239.1 22.9,237.1 C17.1,238.5 10.9,236.3 8.6,230.3 C6.9,225.9 9,220.6 12.7,217.9 C13.7,217.1 14.9,217.2 15.8,217.9 C16,217.1 16.3,216.4 16.6,215.7 C16.7,215.5 16.9,215.2 17,214.9 C16.9,209.1 19,203.4 24.3,200.3 C28.2,198 32.9,197.7 37.1,199.1 C39.5,196.9 42.4,195.3 46.1,194.4 C52.5,192.8 59.2,194.6 63.8,199.4 C64.8,199.1 65.8,198.9 66.9,198.8 C67.2,196.1 68.2,193.5 70.1,191.5 C71.4,190 73.1,188.9 74.9,188.1 C75.7,185 77,182.3 79.2,180 C78.1,179.1 77.1,178.1 76.3,176.9 C75.4,176.8 74.4,176.6 73.5,176.3 C68.7,174.7 65.4,171.7 63.1,167.9 C58.9,169 54.5,168.6 50.1,165.8 C47,163.9 44.6,160.7 43.4,157.2 L39.8,155.9 L39.8,155.9 C36.4,154.7 34,152.5 32.6,149.9 C30.9,150.5 28.9,150.5 27.4,149.3 C18.1,142.1 24.4,130.3 34.3,128 C38.3,127 41.8,127.6 45,129 C47.2,126.9 50,125.3 53.2,124.6 C56.9,123.7 60.8,124.3 64.2,126 L65.1,126 L65.1,126 C68.6,123.4 73,122.2 78.4,123.5 C84.5,124.9 88.7,128.3 91.6,132.8 C92.5,132 93.5,131.2 94.6,130.6 C97.8,128.9 101.2,128.5 104.4,129 C105.5,127.5 106.6,125.9 107.8,124.4 C105,122.3 103.2,119 103.1,115.3 C102.2,114.8 101.4,114.2 100.7,113.6 C96.9,111 93.7,107.7 92.3,103.2 C91.6,101 91.3,98.7 91.4,96.4 C91,96.3 90.6,96.2 90.2,96.1 C74.2,91.5 67.6,69.5 80.2,57.7 C86.9,51.5 96.9,55 103.5,59.6 C107.9,62.7 111.5,66.6 114.7,70.9 C114.8,70.9 115,70.9 115.1,70.9 C119.8,72 123.4,75 126.1,78.8 C130.9,78 136,78.9 140.6,82.2 C143.9,84.6 146,87.6 147,90.9 C151.3,88.6 155.8,86.7 160.3,84.9 C160.6,84.2 160.9,83.5 161.3,82.8 C162,81.4 162.9,80.2 163.9,79.2 C162.8,77.9 161.8,76.5 160.9,74.9 C157,67.3 158.5,59.6 162.8,53.8 C160.9,49.6 160.3,44.7 161.4,40.2 C161.6,39.3 161.9,38.5 162.2,37.7 C159.6,33.6 157.9,29 157.5,24.1 Z M87.5,331.3 C90.3,330.6 90.9,329.7 94.1,330 C96.5,330.2 98.9,330.6 101.3,331.2 C106.8,332.6 112,335.5 116.6,339 C123.1,343.8 115.3,352.9 110.2,347.7 L110,347.5 C106.5,343.8 102.6,340.9 98.3,338.3 C96,337 93.8,336 91.4,334.9 C89.8,334.2 88.9,332.9 87.4,332.1 C87.1,331.9 87.1,331.4 87.5,331.3 Z M102.4,258 C100.9,257.4 99.1,258.6 98.7,260.1 C98.3,261.7 99.2,263.1 100.7,263.7 L100.8,263.8 C102.8,264.5 104.6,265.6 106.1,267 L106.4,267.3 C109.2,270 113.4,265.8 110.6,263.1 C108.3,260.8 105.5,259.1 102.4,258 Z M174.2,148.8 C172.6,145.3 167.6,148.2 168.9,151.6 L169,151.8 C170.4,154.9 169.8,158.5 168.3,161.4 L168.1,161.7 C166.3,165.1 171.4,168.1 173.3,164.8 C176.1,159.8 176.6,154 174.2,148.8 Z M217.8,105.8 L217.7,105.4 C217,101.6 211.2,103.2 211.9,107 C213.1,113.3 217.6,117.4 223.5,119.5 C227.2,120.8 228.7,115 225.1,113.7 C221.2,112.3 218.6,109.8 217.8,105.8 L217.8,105.8 Z M312.3,99.7 L311.3,99.7 L311.3,99.7 L312.1,100.7 L312.1,100.7 C312.1,100.3 312.2,100 312.3,99.7 Z" fill="#111111"/><g transform="translate(133.03 186.05)"><path d="M157.9,261.1 L160,260.5 C167.6,258.4 175.6,255.1 182.8,259.7 C185.5,261.3 185.9,264.8 183.8,267 C177.9,273.4 169.2,272.2 161.2,272.2 L160.8,272.2 C152.7,272.4 144.8,272 136.8,270.8 C135.8,270.6 135.5,268.9 136.5,268.5 C143.4,265.4 150.6,263.1 157.9,261.1 L157.9,261.1 Z M170.8,144.4 C178.4,149 189.9,159.7 181.7,171 C172.2,181.1 158.4,169.6 151.6,164.4 C145.3,160.3 138.3,170.7 144.1,175.4 C193.1,211.7 213,145.6 174.6,139 C170.4,138.2 168.8,142.9 170.8,144.4 Z M223.3,84 C235.5,83.6 235.5,103 223.3,102.9 C219.7,102.9 216,102.9 212.4,102.9 C214.5,110.6 213.3,119.8 209.5,126.3 C207,130.6 200.9,131.3 197.4,127.8 C191.3,121.8 190.1,113 192.3,105 L191.8,103.9 L191.8,103.9 C191.7,103.6 191.6,103.2 191.5,102.9 C179.7,102.9 168,102.9 156.2,103 L138.6,103 C127.1,103 115.6,103.1 104.2,103 C104.3,103.2 104.5,103.4 104.6,103.6 C105.3,105.1 105.6,107 105.8,108.7 C106.2,111.5 106.2,114.5 105.7,117.2 C105.4,119.3 104.8,121.7 103.7,123.6 L103.7,123.6 L103.7,123.6 C103.1,125.9 102.5,128.1 100.7,129.7 C100.2,130.2 99.7,130.6 99.1,130.8 C98.1,131.9 96.8,132.6 95,132.6 C94.1,132.6 93.1,132.4 92.1,132 C90.6,132.1 89.1,131.4 87.7,130.8 C86.7,130.3 85.7,129.7 84.9,128.9 C84.5,128.8 84.1,128.6 83.8,128.4 C81.5,127 80.6,124.2 80.5,121.6 C80.5,121.5 80.5,121.3 80.5,121.1 C80.4,120.8 80.3,120.4 80.3,120.1 C79.5,115.6 80.4,110.4 81.4,106 C81.6,104.9 81.8,103.7 82.1,102.4 C79.8,102.3 77.6,102.2 75.3,102.1 C69.5,101.9 62.6,102.7 57.3,100.3 C56.9,100.1 57,99.6 57.3,99.4 C62.1,95.9 69.7,95.3 75.6,94.2 L76.1,94.1 C83.2,92.6 90.2,91.4 97.3,90.4 C110.9,88.4 124.8,87.3 138.6,86.5 C166.8,85 195.1,84.9 223.3,84 Z" fill="#111111"/></g></g></svg>