<svg xmlns="http://www.w3.org/2000/svg" viewBox="-94 -47 660 660" fill-rule="evenodd"><defs><clipPath id="f"><rect x="0" y="0" width="473" height="567"/></clipPath></defs><g clip-path="url(#f)"><path d="M407.3,307.8 C405.6,229.2 386,142.2 318.9,93.7 C314.6,90.6 308.2,92.1 304.7,95.6 C301.8,96.2 299.1,97.9 297.3,101.2 C257.6,173.6 215.8,244.9 172,314.9 C143.8,360.2 109.6,405.5 105.1,460.3 C104.3,461.4 97.1,469.6 101.3,469 C103.2,468 105.1,467.2 107.1,466.6 C112.5,474.4 124.9,473.2 127.9,464.3 C138.1,464.6 148.3,467.3 158.1,470.3 C182.1,477.8 206.4,485.2 230.9,491 C311.5,512.4 398.2,485.1 404.6,391.1 C413.3,378.9 408.6,324.6 407.3,307.8 L407.3,307.8 Z" fill="#ffffff"/><path d="M465.9,501 C454.5,447.4 447.2,393.1 440.7,338.8 C437.5,312.5 435,286.1 432,259.8 C429.3,235.3 426.1,210.7 419.7,186.8 C413.8,164.6 405,142.6 392.2,123.5 C380.2,105.5 365.1,90.1 347.8,77.3 C313.5,51.9 269.6,38.4 227,42.8 C220.5,43.5 214.2,44.6 207.9,46.1 C209.9,45.5 211.9,44.9 213.9,44.5 C214.6,44.3 214.3,43.4 213.7,43.5 C40.2,59.2 -0.6,360.9 -4.3,421.7 C-4.6,426.5 -4.8,431.2 -5,435.9 C-6.3,446.5 -7.3,457.1 -7.7,467.7 C-8.3,479.9 -8,492.2 -6.9,504.4 C-5.7,516.9 -4.4,529.8 0.8,541.3 C4,548.3 153.2,538.6 154.8,530.3 C157.9,513.4 159.5,496 158.5,478.8 C158,470.6 157.2,462.4 155.4,454.3 C154.9,452.1 154.4,448 153.2,444.7 C166.8,418.9 181.7,393.8 197.1,368.9 C229.2,317.2 263.3,266.5 289.5,211.4 C302.7,183.8 315.6,154.5 321.8,124.3 L322.8,124.5 C322.7,124.9 322.8,125.3 323.1,125.6 C351.6,145.3 370.7,175.1 383,207.1 C397.4,244.3 404.3,284.4 403.3,324.3 C401.8,387.6 377.7,465.9 309.8,485.9 C294.3,490.5 277.6,491.8 261.7,488.4 C254.2,486.9 246.9,484.4 240.1,480.8 C232.6,476.8 226.4,471.2 219.4,466.5 C213,462.3 205.4,470.6 209.1,476.9 C217.3,490.8 234.8,499.3 249.9,503.5 C266,507.9 283,508.1 299.4,505.3 C300.7,505.1 301.9,504.8 303.2,504.6 C303.4,508.7 305.2,512.8 308.1,516.1 C309.4,517.6 311,518.9 312.8,520 C313,524 315.6,528.1 319.8,529 C342.3,533.6 435.7,521.4 458.1,514.7 C464.2,512.9 467.2,507 465.9,501" fill="#111111"/><g transform="translate(133.03 186.05)"><path d="M171,240.2 C163.7,242.3 155.8,242.5 148.3,240.3 C141.4,238.3 134.5,233.9 129.4,228.1 C125,222.9 122.1,216.6 122.2,209.9 C122.2,209.1 122.5,208.5 122.9,208 C123.4,207.5 124,207.1 124.7,206.9 C125.4,206.8 126.1,206.8 126.8,207.1 C127.3,207.4 127.8,207.8 128.1,208.5 C128.9,209.5 129.7,210.5 130.4,211.4 C136.6,219.1 142.6,224.8 151.9,226.8 C157,228 162,227.5 166.7,225.8 C171.6,224 176.1,220.8 179.6,216.7 C181.2,214.8 183.1,214.1 184.9,214.1 C187,214 189,215 190.6,216.5 C192.1,218.1 193.1,220.1 193.2,222.3 C193.3,224.2 192.7,226.1 191,227.9 C185.6,233.7 178.6,238 171,240.2 Z M170.8,144.4 C178.4,149 189.9,159.7 181.7,171 C172.2,181.1 158.4,169.6 151.6,164.4 C145.3,160.3 138.3,170.7 144.1,175.4 C193.1,211.7 213,145.6 174.6,139 C170.4,138.2 168.8,142.9 170.8,144.4 Z M100.2,124.2 C97.7,122.6 94.9,122.1 91.7,123.5 C89.3,124.6 84.9,128.4 81.9,133.3 C79.8,136.7 78.4,140.7 78.7,144.8 C78.7,145.7 78.4,146.4 77.8,147 C77.4,147.4 76.8,147.7 76,147.8 C75.4,147.8 74.7,147.8 74.1,147.6 C73,147.2 72.4,146.5 72.2,146 C70.1,140.3 71,134.1 73.4,128.4 C76.6,120.8 82.4,114.4 86.2,112.4 C92.7,108.8 100.3,108.7 106.9,112.3 C112.4,115.3 115.9,120.3 119.3,125.3 C120.1,126.4 120.8,127.4 121.5,128.5 C123.1,130.5 123.2,132.6 122.6,134.4 C122,136.4 120.3,138 118.3,138.9 C116.4,139.7 114.1,139.8 112.2,139 C110.5,138.3 109,136.9 108.1,134.6 C106.4,130.7 103.7,126.4 100.2,124.2 L100.2,124.2 Z M223.4,132.8 C221.8,133.7 220.5,133.9 218.6,133.4 C217.6,133.1 216.6,132.5 215.8,131.7 C215,130.9 214.5,130 214.3,128.9 C213.7,126.2 212.3,123.7 210.2,122.1 C208.4,120.7 206.2,120 203.7,120.4 C201,120.8 198.4,122.6 196.7,124.6 C196.1,125.3 195.6,126 195.2,126.8 C194.3,128.2 193.5,129.6 192.3,130.6 C191.8,131 191.1,131.3 190.5,131.3 C190.2,131.3 189.9,131.2 189.7,131.2 C187,128.5 186.5,126.4 186.6,124.4 C186.7,122.3 187.5,120.2 188.8,118.2 C192,113.5 198,109.7 202,108.8 C207.6,107.6 213.1,109 217.5,112.1 C222,115.3 225.4,120.3 226.5,125.8 C226.7,127.2 226.6,128.6 226.1,129.9 C225.6,131.1 224.7,132.1 223.4,132.8 Z M112.4,74.3 C109.1,77.5 105.1,78 101.2,78.4 C98.9,78.7 97.2,78.9 95.4,79.3 C90.7,80.4 85.9,82 81.6,84.3 C77.1,86.8 72.2,89.7 68.7,93.5 C67.9,94.4 67.1,95.3 66.3,96.3 C65.5,97.1 64.9,98 64.1,98.8 C63.3,99.7 62.5,100.7 61.7,101.6 C61.2,102.4 61.1,102.6 61,102.8 C60.8,103.1 60.7,103.5 60.5,103.9 C60.2,104.4 59.9,104.9 59.5,105.5 C59,106.4 58.7,106.6 58.4,106.8 C58,106.9 57.6,107 57.2,107 C56.9,106.9 56.5,106.8 56.2,106.5 C54.5,105 54,102.7 54,100.2 C54.1,96.3 55.5,92.1 56.8,89.5 C59.8,83.5 64,77.2 69,72.7 C74.7,67.6 81,63.7 88.2,61 C92.7,59.4 97.9,57.8 102.8,58 C106.3,58.2 109.6,59.2 112.4,61.8 C114.1,63.4 114.9,65.7 114.9,68 C114.9,70.3 114.1,72.6 112.4,74.3 Z M230.2,103.9 C230,104.3 229.7,104.5 229.4,104.6 C229,104.8 228.7,104.8 228.3,104.8 C227.9,104.7 227.6,104.6 227.3,104.3 C227,104.1 226.8,103.7 226.7,103.3 C224.5,93.6 220.3,86.4 211.1,81.8 C206.6,79.5 201.4,78 196.5,76.9 C195.1,76.5 193.6,76.3 192.1,76.1 C187.3,75.4 182.6,74.6 179.5,70.8 C177.6,68.5 176.8,65.5 177.3,62.8 C177.7,60.3 179.2,57.9 181.9,56.5 C188.6,53 197,56.5 203.8,59.4 C204.3,59.6 204.8,59.8 205.2,60 C211.9,62.8 218,66.5 222.9,71.8 C226.9,76 230.6,82.2 232,88.6 C233.3,93.9 233,99.4 230.2,103.9 Z" fill="#111111"/></g></g></svg>