<?xml version="1.0" standalone="no"?>
<!DOCTYPE svg PUBLIC "-//W3C//DTD SVG 20010904//EN"
 "http://www.w3.org/TR/2001/REC-SVG-20010904/DTD/svg10.dtd">
<svg version="1.0" xmlns="http://www.w3.org/2000/svg"
 width="200.000000pt" height="200.000000pt" viewBox="0 0 200.000000 200.000000"
 preserveAspectRatio="xMidYMid meet">

<g transform="translate(0.000000,200.000000) scale(0.100000,-0.100000)"
fill="#000000" stroke="none">
<path d="M968 1479 l-3 -64 -102 -3 -103 -3 0 -167 0 -168 70 -69 70 -69 0
172 0 172 100 0 100 0 0 -103 0 -103 70 -69 70 -69 0 169 0 170 -134 134 -135
135 -3 -65z"/>
<path d="M1030 822 c0 -37 -1 -38 -30 -34 -37 5 -77 -19 -91 -56 -24 -63 37
-145 94 -126 12 4 37 6 55 5 l32 -3 0 126 0 126 -30 0 c-28 0 -30 -2 -30 -38z
m-5 -121 c0 -41 -25 -62 -49 -42 -16 14 -22 62 -9 75 4 4 19 6 33 4 21 -3 25
-8 25 -37z"/>
<path d="M1310 735 l0 -125 30 0 30 0 0 125 0 125 -30 0 -30 0 0 -125z"/>
<path d="M140 725 l0 -115 63 0 c78 0 107 17 107 64 0 17 -5 37 -10 42 -8 8
-7 19 1 38 11 23 10 30 -8 54 -18 24 -28 27 -87 30 l-66 3 0 -116z m105 45 c0
-8 -10 -16 -22 -18 -18 -3 -23 2 -23 18 0 16 5 21 23 18 12 -2 22 -10 22 -18z
m5 -75 c16 -19 4 -35 -26 -35 -19 0 -24 5 -24 25 0 29 29 35 50 10z"/>
<path d="M1130 725 l0 -115 29 0 c28 0 30 3 33 43 3 41 4 42 41 45 32 3 37 7
37 28 0 21 -4 24 -40 24 -33 0 -40 3 -40 20 0 17 7 20 40 20 36 0 40 3 40 25
0 24 -2 25 -70 25 l-70 0 0 -115z"/>
<path d="M369 761 c-48 -48 -38 -116 22 -147 77 -39 158 40 124 122 -25 62
-97 74 -146 25z m89 -33 c16 -16 15 -53 -3 -68 -20 -17 -54 -3 -61 26 -11 42
34 72 64 42z"/>
<path d="M592 783 c-19 -7 -42 -58 -42 -92 0 -45 38 -84 81 -83 19 0 49 1 67
1 l32 0 0 90 0 89 -62 0 c-35 0 -69 -3 -76 -5z m76 -55 c29 -29 3 -84 -35 -76
-25 5 -40 52 -23 72 15 19 41 21 58 4z"/>
<path d="M776 783 c-3 -4 -6 -44 -6 -90 l0 -83 30 0 c28 0 29 1 32 58 3 48 7
59 26 67 13 6 22 19 22 31 0 18 -6 21 -49 22 -27 0 -52 -2 -55 -5z"/>
<path d="M1447 779 c-9 -5 -24 -24 -33 -40 -40 -79 47 -165 125 -124 57 29 68
100 22 146 -31 31 -79 38 -114 18z m82 -57 c14 -26 3 -60 -21 -67 -36 -12 -59
26 -42 69 8 22 51 20 63 -2z"/>
<path d="M1610 778 c0 -6 10 -47 22 -90 21 -73 25 -78 50 -78 23 0 29 6 40 42
l13 42 11 -39 c9 -35 15 -40 39 -40 27 0 30 4 52 75 29 94 29 100 -1 100 -21
0 -26 -7 -36 -51 -14 -55 -22 -52 -34 14 -6 30 -11 37 -30 37 -19 0 -25 -8
-38 -52 l-14 -53 -13 53 c-11 45 -16 52 -37 52 -13 0 -24 -5 -24 -12z"/>
</g>
</svg>
