<?xml version="1.0" standalone="no"?>
<!DOCTYPE svg PUBLIC "-//W3C//DTD SVG 20010904//EN"
 "http://www.w3.org/TR/2001/REC-SVG-20010904/DTD/svg10.dtd">
<svg version="1.0" xmlns="http://www.w3.org/2000/svg"
 width="200.000000pt" height="200.000000pt" viewBox="0 0 200.000000 200.000000"
 preserveAspectRatio="xMidYMid meet">
<metadata>
Created by potrace 1.14, written by Peter Selinger 2001-2017
</metadata>
<g transform="translate(0.000000,200.000000) scale(0.100000,-0.100000)"
fill="#000000" stroke="none">
<path d="M890 1765 l0 -215 -330 0 -330 0 0 -548 0 -549 215 -216 c118 -120
217 -217 220 -217 3 0 5 245 5 545 l0 545 40 0 c22 0 159 0 305 0 146 0 276 0
290 0 l25 0 0 -330 0 -329 215 -216 c119 -118 218 -215 220 -215 3 0 5 245 5
544 l0 544 -435 436 c-239 240 -437 436 -440 436 -3 0 -5 -97 -5 -215z"/>
</g>
</svg>
